<svg xmlns="http://www.w3.org/2000/svg" width="1921" height="879.948" viewBox="0 0 1921 879.948">
  <defs>
    <style>
      .cls-1 {
        fill: #fff;
      }
    </style>
  </defs>
  <path id="Subtraction_4" data-name="Subtraction 4" class="cls-1" d="M2070,879.948H150V470.325l-.5,0V266.631c14.8-41.144,30.777-74.728,47.5-99.819a207.078,207.078,0,0,1,17.587-23,129.5,129.5,0,0,1,19.088-17.729,83.182,83.182,0,0,1,20.6-11.41,65.954,65.954,0,0,1,10.871-3.006,62.239,62.239,0,0,1,11.256-1.031,68,68,0,0,1,21.687,3.689,97.615,97.615,0,0,1,22.995,11.616A163.885,163.885,0,0,1,345.4,146.31a285.2,285.2,0,0,1,25.654,29.931c52.911,70.314,92.575,116.9,124.827,146.623,31.846,29.342,57.346,43.009,80.251,43.009a57.3,57.3,0,0,0,13.147-1.536,64.756,64.756,0,0,0,12.627-4.464c7.927-3.731,15.962-9.24,24.564-16.842,16.171-14.289,32.634-34.426,52.475-59.266a196.428,196.428,0,0,0,17.209-26.074c5.235-9.263,10.555-19.823,16.263-32.282,10.588-23.11,20.873-49.278,30.82-74.585l.013-.034.01-.023.032-.083c7.312-18.6,14.874-37.841,22.431-55.524,8.475-19.828,16.072-35.616,23.224-48.265a204.342,204.342,0,0,1,12.188-19.222,105.743,105.743,0,0,1,12.729-14.8A53.568,53.568,0,0,1,827.25,3.363,32.671,32.671,0,0,1,841.408,0,33.38,33.38,0,0,1,853.4,2.328a51.533,51.533,0,0,1,12.623,7.281,95.036,95.036,0,0,1,13.315,12.678,178.286,178.286,0,0,1,14.07,18.521c4.852,7.243,9.859,15.589,14.882,24.808,5.134,9.425,10.435,20.037,15.755,31.541,5.439,11.763,11.054,24.789,16.688,38.718,5.751,14.215,11.7,29.806,17.684,46.34,6.194,17.124,12.527,33.275,18.823,48,6.137,14.36,12.409,27.76,18.641,39.828,6.077,11.769,12.287,22.6,18.456,32.2a251.575,251.575,0,0,0,18.269,25.119,159.761,159.761,0,0,0,18.082,18.585,105.633,105.633,0,0,0,17.891,12.6,77.905,77.905,0,0,0,17.7,7.157,69.005,69.005,0,0,0,17.505,2.264,75.759,75.759,0,0,0,18.055-2.259,99.11,99.11,0,0,0,17.841-6.366,142.633,142.633,0,0,0,17.626-9.85,213.554,213.554,0,0,0,17.409-12.712c23.062-18.577,45.612-43.2,67.419-67.018l.006-.007.013-.015.013-.015.026-.029c9.963-10.88,19.373-21.157,28.885-30.959a378.973,378.973,0,0,1,28.2-26.692c9.962-8.361,18.946-14.527,27.467-18.851a76.161,76.161,0,0,1,13.455-5.383,53.048,53.048,0,0,1,13.269-2.1c.612-.014,1.21-.021,1.779-.021,21.283,0,40.187,9.017,57.795,27.565,15.829,16.673,28.694,39,40.24,60.645,2.37,4.441,4.726,8.938,7.005,13.286l.012.023.285.545.005.01,0,0c10.261,19.591,19.953,38.095,30.575,51.8,5.685,7.338,11.17,12.705,16.766,16.409a38.448,38.448,0,0,0,9.2,4.535,31.818,31.818,0,0,0,9.919,1.594,35.174,35.174,0,0,0,8.46-1.071,46.962,46.962,0,0,0,9.056-3.337,70.23,70.23,0,0,0,9.716-5.787,109.693,109.693,0,0,0,10.442-8.424c29-26.259,53.907-62.468,77.994-97.485l.008-.011.016-.024c9.91-14.407,19.268-28.011,28.865-40.908,5.163-6.936,9.89-12.986,14.451-18.5,5.11-6.176,9.9-11.548,14.658-16.423,10.589-10.862,20.579-18.817,30.54-24.32a76.453,76.453,0,0,1,16.182-6.75,62.761,62.761,0,0,1,16.991-2.378,65.086,65.086,0,0,1,15.465,1.912,81.928,81.928,0,0,1,16.279,5.982,117.6,117.6,0,0,1,17.192,10.426,179.545,179.545,0,0,1,18.2,15.241c50.646,48.03,80.557,95.279,102.4,129.779l.007.011c10.243,16.178,19.089,30.15,27.313,39.671a55.338,55.338,0,0,0,12.2,11.031,23.481,23.481,0,0,0,12.63,3.888,26.344,26.344,0,0,0,11.184-2.7,57.566,57.566,0,0,0,12.682-8.444c13.791-11.627,24.869-23.777,33.77-33.54l.008-.009c5.625-6.169,10.482-11.5,14.865-15.469,4.773-4.325,8.545-6.605,11.869-7.174V477.2l-.5,0V879.948h0Z" transform="translate(-149.5 0)"/>
</svg>
